<svg xmlns="http://www.w3.org/2000/svg" viewBox="0 0 64 64" role="img" aria-label="Magic conch shell">
  <defs>
    <linearGradient id="shell" x1="20%" y1="0%" x2="80%" y2="100%">
      <stop offset="0%" stop-color="#ffffff"/>
      <stop offset="55%" stop-color="#d4d4d4"/>
      <stop offset="100%" stop-color="#a3a3a3"/>
    </linearGradient>
  </defs>
  <path fill="url(#shell)" d="M34 6c-14 2-24 14-26 28-1 10 2 20 10 28 3 3 8 4 12 2 10-5 16-16 16-28C46 14 38 4 34 6z"/>
  <path fill="#0a0a0a" opacity="0.12" d="M20 30c4 10 10 18 18 24 2-8 2-16 0-24-6-4-12-6-18 0z"/>
  <path fill="none" stroke="#0a0a0a" stroke-width="1.4" stroke-linecap="round" d="M22 22c3 8 5 18 8 30M28 18c2 10 4 22 6 34M34 14c1 12 2 24 4 36"/>
  <path fill="#f5f5f5" d="M18 44c-2 6 2 12 10 14 6 1 12-2 14-8 2-6-2-10-8-12-6-2-12 0-16 6z"/>
  <ellipse cx="30" cy="50" rx="6" ry="3" fill="#0a0a0a" opacity="0.2"/>
</svg>
